<?xml version="1.0" standalone="yes"?>
<svg xmlns="http://www.w3.org/2000/svg" width="12" height="21">
<path style="fill:#ffffff; stroke:none;" d="M0 0L0 8L1.25 7.63889L1.66667 7.30556L2.41667 6.75L3.86111 5.38889L4.61111 4.69444L6 3.33333L6.63889 2.69444L7.36111 2.08333L7.75 1.69444L9 1L8.22222 0.277777L7.69444 0.25L6.88889 0.0555553L5.97222 0.0277786L4 0L3.05556 0L0 0z"/>
<path style="fill:#66cc66; stroke:none;" d="M0 8L0.111111 9.5L0.722222 11.0556L2.11111 13L3.02778 14L5 16L7 17.9722L7.94444 18.8889L8.94444 19.6944L9.5 20.2222L11 21L12 20L12 18L9.94444 15.9444L8.94444 14.9444L7.02778 13L6.11111 12.0556L5.30556 11.0556L4.77778 10.5L4 9L5.25 8.66667L5.66667 8.36111L6.41667 7.88889L7.86111 6.61111L9.33333 5.19444L10.5833 4.08333L12 3L12 1L11 0L9.52778 0.277779L8.16667 0.916668L7.41667 1.41667L6.69444 2.02778L6 2.66667L4.61111 4L3.13889 5.38889L2.41667 6.11111L1.66667 6.77778L1.25 7.25L0 8z"/>
<path style="fill:#ffffff; stroke:none;" d="M11 0L12 1L11 0M11 3L9.33333 4.44444L7.86111 5.86111L7.13889 6.61111L5.66667 7.91667L5.25 8.30556L4 9L4.36111 10.5L5.33333 12.0556L7.02778 14L8.94444 15.8889L9.94444 16.6944L10.5 17.2222L12 18L12 12L12 10L12 9L12 7L11.9722 6.02778L11.9444 5.11111L11.75 4.30556L11.7222 3.77778L11 3M0 11L0 21L10 21L9.22222 19.5L8.69444 18.9444L7.88889 17.9444L6 16L4 14.0278L3.05556 13.1111L2.05556 12.3056L1.5 11.7778L0 11M11 20L12 21L11 20z"/>
</svg>
