<?xml version="1.0" standalone="yes"?>
<svg xmlns="http://www.w3.org/2000/svg" width="12" height="21">
<path style="fill:#ffffff; stroke:none;" d="M0 0L1 1L0 0z"/>
<path style="fill:#66cc66; stroke:none;" d="M1 0L0 1L0 3L1.41667 4.08333L2.66667 5.19444L4.13889 6.61111L5.58333 7.88889L6.33333 8.36111L6.75 8.66667L8 9L7.22222 10.5L5.88889 12.0556L4.97222 13L4 14L2.11111 16L0.777778 17.9444L0.583333 18.9444L0.388889 19.5L1 21L2.5 20.2222L3.05556 19.6944L4.05556 18.8889L5 17.9722L7 16L8.97222 14L9.88889 13L11.2778 11.0556L11.8889 9.5L12 8L10.75 7.25L10.3333 6.77778L9.58333 6.11111L8.86111 5.38889L7.38889 4L6 2.66667L5.30556 2.02778L4.58333 1.41667L3.83333 0.916668L2.47222 0.277779L1 0z"/>
<path style="fill:#ffffff; stroke:none;" d="M3 0L3.69444 1.05556L4.08333 1.38889L4.69444 2.05556L5.33333 2.66667L6.69444 4L7.38889 4.69444L8.13889 5.38889L9.58333 6.75L10.3333 7.30556L10.75 7.63889L12 8L12 0L3 0M0 3L0 18L1.5 17.2222L2.05556 16.6944L3.05556 15.8889L4.97222 14L6.66667 12.0556L7.63889 10.5L8 9L6.75 8.30556L6.33333 7.91667L4.86111 6.61111L4.13889 5.86111L2.66667 4.47222L1.83333 3.91667L1.41667 3.52778L0 3M11 11L7.94444 14.0556L7 15L5.02778 17L4.11111 17.9444L3.30556 18.9444L2.77778 19.5L2 21L12 21L12 17.9444L12 16L11.9722 14.0278L11.9444 13.1111L11.75 12.3056L11.7222 11.7778L11 11M0 20L1 21L0 20z"/>
</svg>
