<?xml version="1.0" standalone="yes"?>
<svg xmlns="http://www.w3.org/2000/svg" width="14" height="17">
<path style="fill:#666666; stroke:none;" d="M0 0L0 17L5 17L7 17L9 16.9722L10.9722 16.6667L12.6667 15.6667L13.2778 14.8889L13.8889 13L13.9444 12L13.7222 10.1111L13.3333 9.30556L13.1389 8.77778L12 8L12.7222 6.5L12.75 5.94444L12.9444 4.94444L12.9722 4.05556L13 3.05556L13 1L12 0L0 0z"/>
<path style="fill:#ffffff; stroke:none;" d="M12 0L12.5833 2.05556L12.8333 4L12.6667 5.94444L12.6389 6.94444L12.5278 7.5L13 9L13.7222 8.22222L13.75 7.69444L13.9444 6.88889L13.9722 5.97222L14 4L13.8889 2.11111L13.7222 1.33333L13.1389 0.361111L12 0M5 4L5 6L8 6L8 4L5 4M5 10L5.11111 11.3889L5.72222 12.3333L6.27778 12.6667L7.52778 12.9722L9 13L9 11L8 10L5 10M13 15L12 17L14 17L14 15L13 15z"/>
</svg>
