<?xml version="1.0" standalone="yes"?>
<svg xmlns="http://www.w3.org/2000/svg" width="13" height="15">
<path style="fill:#ffffff; stroke:none;" d="M0 2C4.70789 3.11157 7.28029 5.32481 10 0C6.49059 0.000387192 2.43114 -0.782146 0 2z"/>
<path style="fill:#666666; stroke:none;" d="M10 0C6.94318 3.68974 5.01787 3.22707 1 1C0.917638 4.13047 1.5864 4.9714 4 7C1.6183 9.82819 0.462192 11.325 1 15C3.3237 13.5191 4.58061 12.3535 6 10C8.27853 12.1296 10.1807 13.7014 13 15C11.8715 10.6931 9.3056 8.48703 13 5C12.2507 2.74628 11.6559 1.68644 10 0z"/>
<path style="fill:#ffffff; stroke:none;" d="M11 0L12 3C12.6848 1.75165 12.7488 1.45158 13 0L11 0M0 4L0 11L4 8C2.66972 6.24747 1.75253 5.33028 0 4M12 5C9.63125 8.06844 10.1523 9.50006 13 12C12.9813 9.45666 12.9845 7.33155 12 5M6 10L2 14C4.88969 15.2129 7.87412 14.9983 11 15C9.45108 12.8643 8.13569 11.5489 6 10M0 14L1 15L0 14z"/>
</svg>
